<mxfile host="app.diagrams.net" agent="Mozilla/5.0 (Windows NT 10.0; Win64; x64) AppleWebKit/537.36 (KHTML, like Gecko) Chrome/139.0.0.0 Safari/537.36" version="28.1.0">
  <diagram name="Страница — 1" id="jJp6xhVJ2gDI_GFMw5Dq">
    <mxGraphModel dx="1426" dy="743" grid="1" gridSize="10" guides="1" tooltips="1" connect="1" arrows="1" fold="1" page="1" pageScale="1" pageWidth="4681" pageHeight="3300" math="0" shadow="0">
      <root>
        <object label="" id="0">
          <mxCell />
        </object>
        <mxCell id="1" parent="0" />
        <mxCell id="VIt-c-x9ioLM3v6wMo8--2" value="Объекты строительства Свободы 57Д" style="swimlane;fontStyle=0;childLayout=stackLayout;horizontal=1;startSize=30;horizontalStack=0;resizeParent=1;resizeParentMax=0;resizeLast=0;collapsible=1;marginBottom=0;whiteSpace=wrap;html=1;fontSize=24;movable=1;resizable=1;rotatable=1;deletable=1;editable=1;locked=0;connectable=1;" parent="1" vertex="1">
          <mxGeometry x="40" y="30" width="490" height="60" as="geometry" />
        </mxCell>
        <mxCell id="VIt-c-x9ioLM3v6wMo8--3" value="&lt;a href=&quot;https://app.diagrams.net/?src=about#Hdstalev-afk%2FDiagrams%2Fmain%2F%D0%A6%D0%BE%D0%BA%D0%BE%D0%BB%D1%8C%20(%D0%95%D0%90)%20%D0%9A%D0%BE%D1%80%D0%BF%D1%83%D1%81%202.drawio#%7B%22pageId%22%3A%22HfEHtyiL9DBPX4W-OFM9%22%7D&quot;&gt;Цокольное помещение ЕА (ИП Валиев)&lt;/a&gt;" style="text;strokeColor=none;fillColor=none;align=left;verticalAlign=middle;spacingLeft=4;spacingRight=4;overflow=hidden;points=[[0,0.5],[1,0.5]];portConstraint=eastwest;rotatable=1;whiteSpace=wrap;html=1;fontSize=24;movable=1;resizable=1;deletable=1;editable=1;locked=0;connectable=1;" parent="VIt-c-x9ioLM3v6wMo8--2" vertex="1">
          <mxGeometry y="30" width="490" height="30" as="geometry" />
        </mxCell>
        <mxCell id="VIt-c-x9ioLM3v6wMo8--5" value="Item 3" style="text;strokeColor=none;fillColor=none;align=left;verticalAlign=middle;spacingLeft=4;spacingRight=4;overflow=hidden;points=[[0,0.5],[1,0.5]];portConstraint=eastwest;rotatable=0;whiteSpace=wrap;html=1;fontSize=24;" parent="1" vertex="1">
          <mxGeometry x="60" y="270" width="490" height="30" as="geometry" />
        </mxCell>
        <mxCell id="VIt-c-x9ioLM3v6wMo8--4" value="Item 2" style="text;strokeColor=none;fillColor=none;align=left;verticalAlign=middle;spacingLeft=4;spacingRight=4;overflow=hidden;points=[[0,0.5],[1,0.5]];portConstraint=eastwest;rotatable=0;whiteSpace=wrap;html=1;fontSize=24;" parent="1" vertex="1">
          <mxGeometry x="60" y="220" width="490" height="30" as="geometry" />
        </mxCell>
      </root>
    </mxGraphModel>
  </diagram>
</mxfile>
